<svg width="177" height="149" viewBox="0 0 177 149" fill="none" xmlns="http://www.w3.org/2000/svg">
<path fill-rule="evenodd" clip-rule="evenodd" d="M84.4892 0.373252C82.3001 0.915761 80.508 1.78102 80.508 2.29592C80.508 2.81189 80.1311 2.99981 79.6693 2.71528C78.9198 2.2524 75.9429 2.98176 60.8673 7.32076C48.2686 10.9474 43.3743 12.9115 44.0294 14.0793C44.523 14.9615 44.3266 14.9509 43.3457 14.0421C42.2723 13.0495 41.2043 13.0877 38.4992 14.2173C36.5914 15.0146 34.6751 15.3501 34.2419 14.9615C33.8088 14.573 33.848 14.9339 34.33 15.7631C34.9893 16.8991 34.7515 17.0965 33.3607 16.5625C31.3616 15.796 20.951 18.7623 19.8469 20.4142C19.4742 20.9716 18.7332 21.1584 18.2002 20.8293C16.371 19.6997 0.374962 24.9878 0.00975099 26.8436C-0.306624 28.4499 6.62283 28.5879 87.8621 28.5879C163.41 28.5879 176.057 28.3714 176.057 27.0783C176.057 25.3276 155.51 18.5425 153.058 19.4842C152.217 19.8059 151.776 19.67 152.079 19.1816C152.631 18.2866 142.102 15.4881 140.363 16.0678C139.85 16.2387 139.222 15.9011 138.968 15.3172C138.278 13.7342 112.726 6.54257 109.396 6.99377C107.467 7.256 107.096 7.11693 108.273 6.57336C109.483 6.01387 106.686 4.7749 99.2484 2.57514C90.4282 -0.0333579 87.7475 -0.433609 84.4892 0.373252ZM90.6214 1.84154C90.2955 2.16853 89.4387 1.84259 88.7178 1.11641C87.6774 0.0674911 87.7995 -0.0535356 89.3124 0.521884C90.3592 0.921068 90.9484 1.51455 90.6214 1.84154ZM92.9602 2.51674C95.3383 1.99759 95.5963 2.11225 94.3096 3.11446C92.9878 4.14321 93.1227 4.2653 95.1069 3.83001C96.4223 3.5423 97.2674 3.67926 96.985 4.13471C96.297 5.2484 108.933 8.73596 110.909 7.97793C111.766 7.64882 112.208 7.80063 111.89 8.31554C111.154 9.50459 116.307 10.8487 117.878 9.87725C118.591 9.43772 118.756 9.63412 118.298 10.3752C117.833 11.13 118.28 11.6014 119.461 11.6024C120.518 11.6024 123.895 12.5579 126.967 13.7258C132.961 16.0041 136.304 16.5392 133.591 14.7864C131.792 13.6228 132.578 13.403 135.09 14.367C136.011 14.7195 136.531 15.3851 136.246 15.8459C135.516 17.0275 140.478 18.1136 142.705 17.259C144.067 16.7366 144.327 16.9203 143.685 17.9586C143.034 19.0107 143.381 19.2188 145.053 18.7825C146.283 18.4597 147.469 18.7325 147.688 19.3865C147.905 20.0416 150.051 20.5777 152.454 20.5777C154.857 20.5777 156.333 20.8803 155.734 21.2497C154.277 22.15 157.323 23.2584 161.547 23.3635C163.396 23.4092 164.31 23.6894 163.577 23.9846C162.843 24.2808 162.438 24.8403 162.678 25.2278C162.918 25.6164 129.047 25.9338 87.4088 25.9338C45.7705 25.9338 12.2549 25.5335 12.9291 25.0452C13.6669 24.5101 13.2041 24.3657 11.7644 24.681C10.449 24.9687 9.64113 24.7713 9.96918 24.2426C10.2962 23.7128 12.0097 23.2796 13.7774 23.2796C18.765 23.2796 33.0688 18.8419 31.4498 17.7962C30.6641 17.2898 31.5527 17.1953 33.5295 17.5743C35.8843 18.0265 36.9799 17.8291 36.9799 16.9543C36.9799 16.2483 37.5777 15.8799 38.307 16.1336C40.3921 16.8619 50.0193 13.696 51.6192 11.7574C52.4133 10.7956 52.7286 10.6576 52.3199 11.4496C51.7837 12.491 52.1298 12.7257 53.5684 12.2968C54.663 11.9698 56.9179 11.3774 58.5794 10.9803C60.8503 10.4378 61.2452 10.0131 60.1719 9.26785C59.1835 8.58202 59.4701 8.48116 61.1051 8.94086C63.2072 9.53114 74.9056 6.69013 76.2614 5.26007C76.5533 4.95219 77.2699 4.67616 77.8539 4.64538C81.5856 4.45109 86.7548 2.70572 86.2102 1.82455C85.8482 1.23957 86.5499 1.30221 87.7899 1.96574C89.0162 2.62291 91.3433 2.87027 92.9602 2.51674ZM104.395 5.23141C105.796 5.83337 105.976 6.16355 104.926 6.20177C104.05 6.23468 102.617 5.79728 101.741 5.23141C99.8005 3.97759 101.477 3.97759 104.395 5.23141ZM26.0756 19.6742C25.7232 20.0267 24.8069 20.0649 24.0415 19.7581C23.1943 19.4194 23.4459 19.1678 24.6827 19.1169C25.8017 19.0712 26.4281 19.3218 26.0756 19.6742ZM7.78429 25.403C7.42332 25.9869 6.32025 26.4572 5.33291 26.4487C3.78607 26.4338 3.75741 26.2894 5.13014 25.403C7.20887 24.0589 8.6145 24.0589 7.78429 25.403ZM170.749 25.403C172.883 26.0867 172.987 26.2587 171.28 26.2841C170.112 26.3011 168.201 25.9051 167.033 25.403C164.328 24.2404 167.119 24.2404 170.749 25.403ZM22.8907 27.1059C22.5382 27.4583 21.622 27.4965 20.8565 27.1897C20.0093 26.8511 20.2609 26.5994 21.4978 26.5485C22.6167 26.5028 23.2431 26.7534 22.8907 27.1059ZM29.2606 27.1059C28.9081 27.4583 27.9919 27.4965 27.2265 27.1897C26.3793 26.8511 26.6309 26.5994 27.8677 26.5485C28.9867 26.5028 29.6131 26.7534 29.2606 27.1059ZM113.685 27.2598C98.9416 27.4265 74.8154 27.4265 60.0711 27.2598C45.3278 27.0931 57.3904 26.9572 86.878 26.9572C116.366 26.9572 128.429 27.0931 113.685 27.2598ZM149.802 27.1611C149.083 27.452 147.65 27.47 146.617 27.2003C145.584 26.9307 146.172 26.6929 147.923 26.6716C149.675 26.6504 150.52 26.8702 149.802 27.1611ZM157.213 27.1674C156.484 27.4626 155.289 27.4626 154.559 27.1674C153.829 26.8734 154.426 26.6324 155.886 26.6324C157.346 26.6324 157.943 26.8734 157.213 27.1674ZM0.883495 35.4887C0.883495 36.7128 2.24667 37.0812 6.78527 37.0812C10.4491 37.0812 12.4386 36.6788 12.0309 36.0196C11.67 35.4356 11.8812 34.9579 12.4991 34.9579C13.117 34.9579 13.6234 35.4356 13.6234 36.0196C13.6234 36.6035 14.1298 37.0812 14.7477 37.0812C15.3656 37.0812 15.5344 36.4846 15.1225 35.7541C14.5237 34.6925 14.6596 34.6925 15.803 35.7541C16.8148 36.6926 21.1294 37.0239 30.5569 36.8837C43.7544 36.6873 43.7947 36.6788 34.8566 36.0196C29.8934 35.6533 54.7362 35.3635 90.063 35.3751C125.39 35.3868 147.605 35.6777 139.43 36.0196C125.634 36.5971 126.206 36.6459 147.393 36.7022C159.947 36.7351 168.068 36.4283 165.441 36.0196C160.734 35.2881 160.763 35.2743 167.361 35.1171C171.593 35.0163 173.818 35.3486 173.403 36.0196C173.042 36.6035 173.254 37.0812 173.871 37.0812C174.489 37.0812 174.996 36.3646 174.996 35.4887C174.996 34.0863 164.615 33.8962 87.9396 33.8962C11.2644 33.8962 0.883495 34.0863 0.883495 35.4887ZM23.4438 35.6607C22.7144 35.9559 21.52 35.9559 20.7896 35.6607C20.0603 35.3666 20.6569 35.1256 22.1167 35.1256C23.5765 35.1256 24.1742 35.3666 23.4438 35.6607ZM45.7588 36.7553C46.7918 37.0249 48.225 37.0069 48.9438 36.716C49.6625 36.4251 48.8175 36.2054 47.0657 36.2266C45.314 36.2478 44.7258 36.4856 45.7588 36.7553ZM53.1703 36.7797C54.7755 37.0228 57.4042 37.0228 59.0094 36.7797C60.6146 36.5366 59.3013 36.3381 56.0898 36.3381C52.8783 36.3381 51.565 36.5366 53.1703 36.7797ZM64.3177 36.7224C65.0481 37.0175 66.2425 37.0175 66.9718 36.7224C67.7023 36.4283 67.1046 36.1873 65.6448 36.1873C64.185 36.1873 63.5883 36.4283 64.3177 36.7224ZM77.6405 36.8105C82.7789 37.0058 90.9006 37.0048 95.6887 36.8084C100.478 36.612 96.2737 36.4527 86.3471 36.4538C76.4206 36.4548 72.5031 36.6162 77.6405 36.8105ZM111.562 36.7924C113.752 37.0218 117.335 37.0218 119.524 36.7924C121.714 36.5642 119.922 36.3763 115.543 36.3763C111.163 36.3763 109.372 36.5642 111.562 36.7924ZM11.0149 43.3779C10.6784 43.9215 10.8896 44.6657 11.4831 45.0331C12.0766 45.3993 12.5618 45.1021 12.5618 44.3727C12.5618 43.62 13.289 43.9374 14.2413 45.1063C15.8964 47.1383 15.9113 47.1373 15.2499 45.0437C14.7732 43.5297 15.5089 43.9289 17.818 46.4366C19.8639 48.6586 21.055 49.3614 21.055 48.3465C21.055 47.4642 20.2376 46.2847 19.2396 45.7253C17.7288 44.8802 17.8732 44.7379 20.1038 44.877C22.2823 45.0118 22.6964 45.4928 22.3227 47.4483C22.07 48.7701 21.4425 50.112 20.9287 50.4305C20.4138 50.748 19.9934 69.1338 19.9934 91.2885C19.9934 126.386 20.1983 131.569 21.5859 131.569C22.9703 131.569 23.1784 126.792 23.1784 94.9417C23.1784 66.4202 23.4724 58.2847 24.5054 58.1785C25.2359 58.1042 26.9069 57.9312 28.2212 57.7931C30.7915 57.5235 31.2533 58.3081 29.5345 60.0269C27.8444 61.717 28.631 139.226 30.3446 139.797C31.3914 140.146 31.6716 131.168 31.6716 97.2423C31.6716 63.8595 31.3744 54.1156 30.3446 53.6675C29.6152 53.3501 30.3318 53.3618 31.9371 53.6941C33.7992 54.0795 34.8566 53.8491 34.8566 53.0581C34.8566 52.3766 35.3344 52.1143 35.9183 52.4753C36.5946 52.8936 36.9799 67.3492 36.9799 92.3502C36.9799 126.504 37.1859 131.569 38.5724 131.569C39.96 131.569 40.167 126.283 40.1808 90.4296C40.1904 67.8035 40.5492 48.7372 40.9803 48.0609C41.4103 47.3846 43.5527 46.495 45.7408 46.0841C48.07 45.6478 49.7199 44.7273 49.7199 43.8642C49.7199 42.6603 46.2175 42.3895 30.6726 42.3895C20.0624 42.3895 11.3546 42.8269 11.0149 43.3779ZM68.8298 43.9342C68.8298 44.8558 70.3129 45.7571 72.5073 46.168C76.5416 46.9249 77.9919 48.1851 78.5492 51.4136C78.751 52.5815 79.3933 53.8884 79.9772 54.3173C80.6418 54.8056 80.5611 55.1029 79.7596 55.1135C78.786 55.1252 78.4632 64.3054 78.4112 93.4448C78.3571 123.966 78.6172 131.669 79.6905 131.31C80.7395 130.961 81.0887 122.867 81.2628 94.9183C81.5007 56.8684 81.2873 58.4068 86.5531 56.7973C88.7476 56.1274 88.8251 56.2888 87.8802 59.582C87.3292 61.5047 86.878 80.3991 86.878 101.57C86.878 135.481 87.0723 140.062 88.5087 140.062C89.9536 140.062 90.1054 135.133 89.8358 96.7996L89.5321 53.5369L92.4517 53.314L95.3713 53.0921V92.33C95.3713 129.024 95.4912 131.564 97.2292 131.485C98.2505 131.439 98.6093 131.201 98.0254 130.954C97.1782 130.598 97.0551 60.4866 97.88 48.1862C97.9936 46.4981 98.6858 46.0661 101.02 46.2274C103.255 46.3824 103.863 46.0427 103.421 44.8876C103.095 44.0372 103.203 43.5733 103.662 43.8567C104.121 44.1402 105.191 43.9342 106.039 43.397C107.009 42.7834 100.396 42.4161 88.205 42.4054C71.951 42.3916 68.8298 42.638 68.8298 43.9342ZM126.159 43.8313C126.159 44.67 128.045 45.67 130.671 46.2242L135.184 47.1755L135.732 89.6376C136.035 112.992 136.471 129.472 136.702 126.261L137.122 120.422L137.838 126.261C138.232 129.472 138.631 115.738 138.726 95.7379C138.839 72.0895 138.528 59.3761 137.838 59.3761C137.254 59.3761 136.778 59.0172 136.78 58.5798C136.783 58.1424 138.456 57.6976 140.496 57.5936L144.208 57.4035V98.7329C144.208 135.026 144.404 140.062 145.823 140.062C147.248 140.062 147.405 134.949 147.151 96.7996L146.862 53.5369L149.781 53.4244L152.701 53.3108V92.4404C152.701 126.251 152.914 131.569 154.27 131.569C155.623 131.569 155.878 125.721 156.128 89.0484C156.313 61.8009 156.036 46.0894 155.355 45.307C154.771 44.6339 155.093 44.687 156.071 45.4237C158.333 47.1277 165.441 45.945 165.441 43.8642C165.441 42.6592 161.851 42.3895 145.8 42.3895C129.963 42.3895 126.159 42.6687 126.159 43.8313ZM132.529 44.5128C132.529 45.0968 132.08 45.5745 131.53 45.5745C130.98 45.5745 130.236 45.0968 129.875 44.5128C129.514 43.9289 129.964 43.4512 130.874 43.4512C131.784 43.4512 132.529 43.9289 132.529 44.5128ZM136.422 44.9428C136.422 45.7624 135.788 46.1903 135.013 45.893C134.238 45.5957 133.867 44.9248 134.191 44.4014C135.089 42.948 136.422 43.2707 136.422 44.9428ZM25.6096 46.6372C25.9153 47.8061 25.7316 48.4951 25.2029 48.1671C24.6732 47.8401 24.24 48.3975 24.24 49.405C24.24 50.4125 23.9438 50.9401 23.5818 50.5781C22.9363 49.9326 23.9066 44.5128 24.6668 44.5128C24.8802 44.5128 25.3038 45.4694 25.6096 46.6372ZM40.4303 45.2157C39.701 45.5108 38.5066 45.5108 37.7762 45.2157C37.0468 44.9216 37.6435 44.6806 39.1033 44.6806C40.563 44.6806 41.1608 44.9216 40.4303 45.2157ZM78.3847 45.5745C78.3847 46.1584 77.8783 46.6362 77.2604 46.6362C76.6425 46.6362 76.4312 46.1584 76.7922 45.5745C77.1532 44.9906 77.6585 44.5128 77.9165 44.5128C78.1745 44.5128 78.3847 44.9906 78.3847 45.5745ZM84.7546 45.5745C84.7546 46.1584 84.5444 46.6362 84.2864 46.6362C84.0285 46.6362 83.5231 46.1584 83.1622 45.5745C82.8012 44.9906 83.0125 44.5128 83.6304 44.5128C84.2482 44.5128 84.7546 44.9906 84.7546 45.5745ZM81.2108 50.0866C80.9167 50.817 80.6757 50.2193 80.6757 48.7595C80.6757 47.2997 80.9167 46.703 81.2108 47.4324C81.506 48.1628 81.506 49.3572 81.2108 50.0866ZM38.616 49.75C37.7136 51.2109 35.9183 51.2162 35.9183 49.7585C35.9183 49.1406 36.396 48.9293 36.9799 49.2903C37.5639 49.6513 38.0416 49.3604 38.0416 48.6448C38.0416 47.9293 38.3283 47.6309 38.6786 47.9813C39.029 48.3316 39.0013 49.1279 38.616 49.75ZM96.1569 50.301C94.5283 52.0697 94.0484 51.7364 94.9264 49.4485C95.2937 48.4919 96.0167 47.9717 96.5338 48.2913C97.0508 48.6109 96.8809 49.5154 96.1569 50.301ZM84.2673 52.935C83.883 53.5582 83.0995 54.0678 82.5273 54.0678C81.954 54.0678 82.1016 53.3989 82.8553 52.5825C84.3788 50.9285 85.3566 51.1726 84.2673 52.935ZM24.2464 55.1294C23.2113 56.5892 22.121 58.7391 21.8226 59.9069C21.5254 61.0747 21.3502 60.2849 21.434 58.152C21.5179 56.0202 21.9447 54.4956 22.3821 54.7642C22.8195 55.0339 23.1784 54.7886 23.1784 54.2185C23.1784 53.6495 22.5817 52.9647 21.8513 52.6982C21.1219 52.4318 21.7855 52.2725 23.327 52.3447C26.1064 52.4742 26.1138 52.4965 24.2464 55.1294ZM28.1501 55.329C27.8114 56.1752 27.5598 55.9236 27.5089 54.6867C27.4632 53.5677 27.7138 52.9414 28.0662 53.2938C28.4187 53.6463 28.4569 54.5625 28.1501 55.329ZM144.571 54.5445C144.966 55.5732 144.651 55.8875 143.623 55.4925C142.777 55.1677 142.084 54.4755 142.084 53.9542C142.084 52.4275 143.926 52.8649 144.571 54.5445ZM154.558 111.063C154.385 122.049 154.243 113.362 154.243 91.7567C154.242 70.1519 154.384 61.1629 154.557 71.7816C154.73 82.3992 154.731 100.076 154.558 111.063ZM85.363 55.6826C84.2376 56.534 83.057 56.9714 82.7396 56.6529C82.0729 55.9873 84.7695 54.0922 86.3471 54.1177C86.9311 54.1272 86.4883 54.8322 85.363 55.6826ZM140.123 56.4533C139.025 57.5521 136.776 56.688 136.776 55.1666C136.776 54.6719 137.763 54.5243 138.969 54.8407C140.401 55.2144 140.802 55.7749 140.123 56.4533ZM38.7667 57.4524C38.428 58.2985 38.1764 58.0469 38.1255 56.81C38.0798 55.6911 38.3304 55.0647 38.6828 55.4171C39.0353 55.7696 39.0735 56.6858 38.7667 57.4524ZM146.064 113.718C145.889 123.828 145.746 115.856 145.746 96.0034C145.746 76.1503 145.888 67.8789 146.063 77.6218C146.239 87.3646 146.239 103.608 146.064 113.718ZM80.1778 67.604C79.9114 68.6263 79.6926 67.7897 79.6926 65.746C79.6926 63.7023 79.9114 62.8658 80.1778 63.8881C80.4454 64.9105 80.4454 66.5816 80.1778 67.604ZM30.3424 113.786C30.1651 122.69 30.0197 115.405 30.0197 97.5959C30.0197 79.7865 30.1651 72.5014 30.3424 81.4055C30.5197 90.3097 30.5197 104.882 30.3424 113.786ZM38.8347 107.947C38.6499 114.809 38.4981 109.194 38.4981 95.4725C38.4981 81.7506 38.6499 76.1365 38.8347 82.998C39.0194 89.8585 39.0194 101.086 38.8347 107.947ZM137.569 107.947C137.384 114.809 137.232 109.194 137.232 95.4725C137.232 81.7506 137.384 76.1365 137.569 82.998C137.754 89.8585 137.754 101.086 137.569 107.947ZM38.8039 128.104C38.5597 129.717 38.3537 128.649 38.3452 125.73C38.3378 122.81 38.5374 121.49 38.789 122.795C39.0406 124.101 39.047 126.49 38.8039 128.104ZM80.1715 129.645C79.8328 130.491 79.5812 130.24 79.5302 129.003C79.4846 127.884 79.7351 127.258 80.0876 127.61C80.4401 127.963 80.4783 128.879 80.1715 129.645ZM46.1973 129.076C44.1727 131.101 46.6241 131.569 59.2419 131.569C71.3682 131.569 72.9331 131.368 72.364 129.887C71.8449 128.534 71.5444 128.482 70.8214 129.622C70.1494 130.682 69.9201 130.705 69.9073 129.711C69.8861 127.967 50.1923 127.822 49.119 129.559C48.5903 130.415 48.1932 130.411 47.6571 129.543C47.2515 128.888 46.5954 128.678 46.1973 129.076ZM102.803 129.945C102.803 131.319 104.934 131.569 116.693 131.569C127.333 131.569 130.48 131.258 130.143 130.242C129.827 129.295 125.849 128.83 116.252 128.618C104.758 128.364 102.803 128.557 102.803 129.945ZM88.6424 135.019C88.3484 135.75 88.1074 135.152 88.1074 133.692C88.1074 132.233 88.3484 131.636 88.6424 132.365C88.9376 133.096 88.9376 134.29 88.6424 135.019ZM9.37678 138.47C9.37678 139.721 10.8514 140.062 16.2776 140.062C21.7037 140.062 23.1784 139.721 23.1784 138.47C23.1784 137.218 21.7037 136.877 16.2776 136.877C10.8514 136.877 9.37678 137.218 9.37678 138.47ZM37.6573 138.47C38.1732 139.813 41.6534 140.062 59.9192 140.062C78.4558 140.062 81.5697 139.833 81.5697 138.47C81.5697 137.504 80.6301 136.907 79.1809 136.952C76.9016 137.023 76.8899 137.068 78.9155 137.939C80.646 138.683 80.7076 138.865 79.2436 138.926C78.2562 138.967 77.1532 138.523 76.7922 137.939C76.393 137.293 68.4762 136.877 56.5909 136.877C39.6543 136.877 37.1286 137.09 37.6573 138.47ZM95.7248 138.47C95.7248 139.833 98.8312 140.062 117.313 140.062C135.793 140.062 138.899 139.833 138.899 138.47C138.899 137.594 138.063 136.885 137.041 136.893C135.453 136.907 135.415 137.06 136.776 137.939C137.832 138.622 132.287 138.899 120.32 138.761L102.272 138.554L118.728 137.939L135.184 137.324L115.455 137.1C98.5254 136.909 95.7248 137.103 95.7248 138.47ZM152.701 138.637C152.701 139.683 154.535 140.062 159.602 140.062C165.132 140.062 166.502 139.735 166.502 138.413C166.502 137.069 165.228 136.806 159.602 136.989C154.647 137.149 152.701 137.614 152.701 138.637ZM21.829 138.58C21.4765 138.933 20.5603 138.971 19.7949 138.664C18.9476 138.325 19.1993 138.074 20.4361 138.023C21.5551 137.977 22.1815 138.228 21.829 138.58ZM101.454 138.58C101.101 138.933 100.185 138.971 99.4193 138.664C98.5721 138.325 98.8238 138.074 100.061 138.023C101.18 137.977 101.806 138.228 101.454 138.58ZM0.883495 146.926C0.883495 148.378 10.3779 148.556 87.9396 148.556C164.615 148.556 174.996 148.366 174.996 146.963C174.996 146.087 174.489 145.371 173.871 145.371C173.254 145.371 172.993 145.769 173.294 146.255C173.594 146.742 173.167 147.14 172.342 147.14C171.517 147.14 171.074 146.766 171.357 146.307C171.64 145.849 134.112 145.491 87.9609 145.51C31.3001 145.533 4.26701 145.895 4.71821 146.624C5.11315 147.265 4.4666 147.214 3.13528 146.501C1.29542 145.516 0.883495 145.594 0.883495 146.926ZM129.057 147.073C128.704 147.426 127.788 147.464 127.023 147.157C126.175 146.819 126.427 146.567 127.664 146.516C128.783 146.47 129.409 146.721 129.057 147.073ZM136.523 147.162C135.508 147.427 133.597 147.437 132.277 147.183C130.956 146.929 131.786 146.711 134.122 146.7C136.458 146.688 137.538 146.896 136.523 147.162ZM143.942 147.164C142.921 147.431 141.248 147.431 140.226 147.164C139.205 146.897 140.041 146.679 142.084 146.679C144.128 146.679 144.964 146.897 143.942 147.164Z" fill="white"/>
</svg>
