<svg width="355" height="379" viewBox="0 0 355 379" fill="none" xmlns="http://www.w3.org/2000/svg">
<path d="M51.584 327.488L16.64 246.08L12.544 322.112C12.3733 323.477 12.544 324.715 13.056 325.824C13.568 326.848 14.6773 327.36 16.384 327.36V328H5.248V327.36C6.86933 327.36 8.02133 326.933 8.704 326.08C9.38667 325.141 9.77067 324.075 9.856 322.88L14.08 244.544C14.2507 243.179 14.08 241.941 13.568 240.832C13.1413 239.637 11.9893 239.04 10.112 239.04V238.4H21.76L55.808 317.632L89.856 238.4H100.864V239.04C99.072 239.04 97.92 239.637 97.408 240.832C96.9813 241.941 96.8107 243.179 96.896 244.544L100.992 320.32C100.992 321.088 101.035 321.899 101.12 322.752C101.291 323.52 101.504 324.288 101.76 325.056C102.101 325.739 102.571 326.293 103.168 326.72C103.851 327.147 104.747 327.36 105.856 327.36V328H89.344V327.36C91.2213 327.36 92.3733 326.763 92.8 325.568C93.312 324.373 93.4827 323.051 93.312 321.6L89.344 246.08L54.272 328H51.328L51.584 327.488ZM169.669 328V327.36C172.741 327.36 173.509 325.269 171.973 321.088L163.781 298.048H129.605L121.413 320.96C119.962 325.227 120.688 327.36 123.589 327.36V328H111.685V327.36C114.757 327.36 117.146 325.013 118.853 320.32L148.037 238.4H150.853L180.037 320.32C181.744 325.013 184.133 327.36 187.205 327.36V328H169.669ZM162.885 295.488L146.629 250.048L130.501 295.488H162.885ZM185.87 283.072C185.87 276.672 187.065 270.656 189.454 265.024C191.929 259.392 195.214 254.528 199.31 250.432C203.491 246.251 208.398 242.965 214.03 240.576C219.662 238.101 225.678 236.864 232.078 236.864C238.307 236.864 244.238 238.016 249.87 240.32C255.502 242.624 260.451 245.952 264.718 250.304V262.848H263.566C263.566 259.52 262.627 256.405 260.75 253.504C258.873 250.517 256.313 247.957 253.07 245.824C249.913 243.605 246.158 241.856 241.806 240.576C237.539 239.296 232.931 238.656 227.982 238.656C222.691 238.656 217.785 239.851 213.262 242.24C208.825 244.544 205.027 247.701 201.87 251.712C198.798 255.723 196.494 260.416 194.958 265.792C193.507 271.168 193.081 276.928 193.678 283.072C194.275 289.216 195.811 294.976 198.286 300.352C200.846 305.728 204.046 310.421 207.886 314.432C211.726 318.443 216.078 321.643 220.942 324.032C225.806 326.336 230.841 327.488 236.046 327.488C239.203 327.488 242.361 327.019 245.518 326.08C248.761 325.056 251.662 323.776 254.222 322.24C256.782 320.619 258.873 318.869 260.494 316.992C262.115 315.029 262.926 313.109 262.926 311.232V300.096C262.926 299.328 262.883 298.56 262.798 297.792C262.798 296.939 262.67 296.171 262.414 295.488C262.158 294.72 261.731 294.123 261.134 293.696C260.537 293.269 259.683 293.056 258.574 293.056V292.416H274.446V293.056C273.337 293.056 272.483 293.269 271.886 293.696C271.289 294.123 270.862 294.72 270.606 295.488C270.35 296.171 270.179 296.939 270.094 297.792C270.094 298.56 270.094 299.328 270.094 300.096V328L262.926 317.632C260.622 319.765 258.361 321.557 256.142 323.008C253.923 324.459 251.577 325.653 249.102 326.592C246.627 327.531 243.982 328.213 241.166 328.64C238.435 329.067 235.406 329.28 232.078 329.28C225.678 329.28 219.662 328.085 214.03 325.696C208.398 323.221 203.491 319.936 199.31 315.84C195.214 311.659 191.929 306.752 189.454 301.12C187.065 295.488 185.87 289.472 185.87 283.072ZM334.294 328V327.36C337.366 327.36 338.134 325.269 336.598 321.088L328.406 298.048H294.23L286.038 320.96C284.587 325.227 285.313 327.36 288.214 327.36V328H276.31V327.36C279.382 327.36 281.771 325.013 283.478 320.32L312.662 238.4H315.478L344.662 320.32C346.369 325.013 348.758 327.36 351.83 327.36V328H334.294ZM327.51 295.488L311.254 250.048L295.126 295.488H327.51Z" fill="black"/>
<path d="M29.304 348.424H43.736V349.288H30.296V358.056H42.104V358.92H30.296V368.136H44.056V369H29.304V348.424ZM45.7183 362.824H46.7103C46.7103 362.973 46.7209 363.176 46.7423 363.432C46.7849 363.688 46.9556 364.147 47.2543 364.808C47.5529 365.448 47.9583 366.013 48.4703 366.504C48.9823 366.995 49.7823 367.443 50.8703 367.848C51.9796 368.253 53.2703 368.456 54.7423 368.456C55.7663 368.456 56.6836 368.392 57.4943 368.264C58.3049 368.115 58.9663 367.944 59.4783 367.752C60.0116 367.539 60.4703 367.272 60.8542 366.952C61.2383 366.611 61.5263 366.301 61.7183 366.024C61.9103 365.747 62.0596 365.416 62.1663 365.032C62.2729 364.627 62.3369 364.317 62.3583 364.104C62.3796 363.869 62.3903 363.581 62.3903 363.24C62.3903 363.219 62.3903 363.197 62.3903 363.176C62.3903 362.024 61.8783 361.107 60.8542 360.424C59.8516 359.741 58.6036 359.251 57.1103 358.952C55.6169 358.653 54.1023 358.376 52.5663 358.12C51.0303 357.843 49.6863 357.395 48.5343 356.776C47.3823 356.157 46.7209 355.325 46.5503 354.28C46.5076 353.96 46.4863 353.651 46.4863 353.352C46.4863 351.901 47.1583 350.664 48.5023 349.64C49.8463 348.616 51.8196 348.104 54.4223 348.104C55.9156 348.104 57.2063 348.275 58.2943 348.616C59.4036 348.936 60.2036 349.331 60.6943 349.8C61.2063 350.269 61.6116 350.739 61.9103 351.208C62.2089 351.677 62.3689 352.083 62.3903 352.424L62.4543 352.904H61.4943C61.4943 352.797 61.4729 352.659 61.4303 352.488C61.4089 352.296 61.2596 351.976 60.9823 351.528C60.7263 351.08 60.3743 350.685 59.9263 350.344C59.4783 350.003 58.7743 349.693 57.8143 349.416C56.8543 349.117 55.7236 348.968 54.4223 348.968C52.0116 348.968 50.2409 349.427 49.1102 350.344C48.0009 351.24 47.4463 352.264 47.4463 353.416C47.4463 353.651 47.4676 353.896 47.5103 354.152C47.6596 354.92 48.1609 355.549 49.0143 356.04C49.8676 356.531 50.8809 356.883 52.0543 357.096C53.2276 357.288 54.4863 357.523 55.8303 357.8C57.1743 358.077 58.4009 358.387 59.5103 358.728C60.6409 359.048 61.5689 359.592 62.2943 360.36C63.0196 361.107 63.3823 362.024 63.3823 363.112C63.3823 363.155 63.3823 363.187 63.3823 363.208C63.3396 365.213 62.6356 366.739 61.2703 367.784C59.9263 368.808 57.7503 369.32 54.7423 369.32C53.2276 369.32 51.8836 369.128 50.7103 368.744C49.5583 368.339 48.6729 367.869 48.0543 367.336C47.4569 366.803 46.9663 366.205 46.5823 365.544C46.1983 364.883 45.9529 364.339 45.8463 363.912C45.7609 363.485 45.7183 363.123 45.7183 362.824ZM74.926 348.424C77.6993 348.424 79.6833 348.979 80.878 350.088C82.0727 351.176 82.67 352.723 82.67 354.728C82.67 358.909 80.0887 361 74.926 361H68.046V369H67.054V348.424H74.926ZM68.046 349.288V360.136H74.926C76.27 360.136 77.4113 359.976 78.35 359.656C79.31 359.315 80.014 358.856 80.462 358.28C80.91 357.704 81.2193 357.139 81.39 356.584C81.582 356.008 81.678 355.389 81.678 354.728C81.678 351.101 79.4273 349.288 74.926 349.288H68.046ZM80.9808 369L90.2608 348.456V348.424H91.2848L91.2528 348.488L100.533 369H99.5408L97.0128 363.4H84.5008L81.9728 369H80.9808ZM96.6287 362.536L90.7728 349.544L84.8848 362.536H96.6287ZM104.871 351.08C106.749 349.096 109.341 348.104 112.647 348.104C114.162 348.104 115.506 348.328 116.679 348.776C117.853 349.224 118.749 349.768 119.367 350.408C119.986 351.027 120.487 351.656 120.871 352.296C121.277 352.936 121.533 353.48 121.639 353.928L121.799 354.6H120.839C120.818 354.451 120.765 354.248 120.679 353.992C120.594 353.736 120.359 353.288 119.975 352.648C119.591 351.987 119.133 351.411 118.599 350.92C118.066 350.429 117.266 349.981 116.199 349.576C115.154 349.171 113.97 348.968 112.647 348.968C109.554 348.968 107.165 349.928 105.479 351.848C103.815 353.768 102.983 356.061 102.983 358.728C102.983 359.965 103.175 361.16 103.559 362.312C103.965 363.443 104.551 364.477 105.319 365.416C106.087 366.333 107.101 367.069 108.359 367.624C109.639 368.179 111.069 368.456 112.647 368.456C113.97 368.456 115.154 368.264 116.199 367.88C117.245 367.496 118.045 367.027 118.599 366.472C119.154 365.917 119.613 365.363 119.975 364.808C120.338 364.253 120.573 363.784 120.679 363.4L120.839 362.824H121.831C121.789 362.995 121.725 363.219 121.639 363.496C121.554 363.773 121.309 364.275 120.903 365C120.498 365.725 120.007 366.365 119.431 366.92C118.877 367.475 118.045 367.997 116.935 368.488C115.826 368.979 114.589 369.256 113.223 369.32V370.6C113.223 371.368 113.074 371.891 112.775 372.168C112.477 372.467 111.943 372.616 111.175 372.616H109.383V371.752H111.175C111.602 371.752 111.879 371.677 112.007 371.528C112.135 371.379 112.199 371.069 112.199 370.6V369.32C109.021 369.235 106.525 368.221 104.711 366.28C102.919 364.317 102.023 361.8 102.023 358.728C102.023 355.613 102.973 353.064 104.871 351.08ZM123.773 358.728C123.773 355.699 124.733 353.171 126.653 351.144C128.595 349.117 131.219 348.104 134.525 348.104C137.853 348.104 140.467 349.117 142.365 351.144C144.285 353.149 145.245 355.677 145.245 358.728C145.245 361.757 144.285 364.285 142.365 366.312C140.467 368.317 137.853 369.32 134.525 369.32C131.219 369.32 128.605 368.307 126.685 366.28C124.744 364.275 123.773 361.757 123.773 358.728ZM124.733 358.728C124.733 359.923 124.936 361.085 125.341 362.216C125.768 363.347 126.365 364.392 127.133 365.352C127.923 366.291 128.957 367.048 130.237 367.624C131.517 368.179 132.947 368.456 134.525 368.456C136.104 368.456 137.533 368.179 138.813 367.624C140.093 367.048 141.117 366.291 141.885 365.352C142.653 364.392 143.24 363.347 143.645 362.216C144.051 361.085 144.253 359.923 144.253 358.728C144.253 357.512 144.051 356.339 143.645 355.208C143.24 354.056 142.653 353.011 141.885 352.072C141.117 351.133 140.093 350.387 138.813 349.832C137.533 349.256 136.104 348.968 134.525 348.968C132.456 348.968 130.653 349.459 129.117 350.44C127.603 351.421 126.493 352.637 125.789 354.088C125.085 355.539 124.733 357.085 124.733 358.728ZM166.018 348.424C169.154 348.424 171.597 349.32 173.346 351.112C175.117 352.904 176.002 355.443 176.002 358.728C176.002 361.885 175.117 364.392 173.346 366.248C171.576 368.083 169.133 369 166.018 369H158.21V348.424H166.018ZM166.018 368.136C167.554 368.115 168.909 367.859 170.082 367.368C171.256 366.856 172.194 366.163 172.898 365.288C173.602 364.392 174.125 363.4 174.466 362.312C174.829 361.203 175.01 360.008 175.01 358.728C175.01 355.827 174.264 353.533 172.77 351.848C171.298 350.141 169.048 349.288 166.018 349.288H159.202V368.136H166.018ZM179.304 348.424H193.736V349.288H180.296V358.056H192.104V358.92H180.296V368.136H194.056V369H179.304V348.424ZM207.21 348.424H221.642V349.288H208.202V358.056H220.01V358.92H208.202V368.136H221.962V369H207.21V348.424ZM224.757 348.424L233.557 367.88L242.325 348.424H243.317L234.037 368.968L234.069 369H233.045V368.968L223.765 348.424H224.757ZM246.273 348.424H260.705V349.288H247.265V358.056H259.073V358.92H247.265V368.136H261.025V369H246.273V348.424ZM264.492 348.424H265.644L281.388 367.816L281.42 348.424H282.444V369H281.132L265.484 349.64V369H264.492V348.424ZM285.742 348.424H303.598V349.288H295.182V369H294.19V349.288H285.742V348.424ZM302.961 358.728C302.961 355.699 303.921 353.171 305.841 351.144C307.782 349.117 310.406 348.104 313.713 348.104C317.041 348.104 319.654 349.117 321.553 351.144C323.473 353.149 324.433 355.677 324.433 358.728C324.433 361.757 323.473 364.285 321.553 366.312C319.654 368.317 317.041 369.32 313.713 369.32C310.406 369.32 307.793 368.307 305.873 366.28C303.931 364.275 302.961 361.757 302.961 358.728ZM303.921 358.728C303.921 359.923 304.123 361.085 304.529 362.216C304.955 363.347 305.553 364.392 306.321 365.352C307.11 366.291 308.145 367.048 309.425 367.624C310.705 368.179 312.134 368.456 313.713 368.456C315.291 368.456 316.721 368.179 318.001 367.624C319.281 367.048 320.305 366.291 321.073 365.352C321.841 364.392 322.427 363.347 322.833 362.216C323.238 361.085 323.441 359.923 323.441 358.728C323.441 357.512 323.238 356.339 322.833 355.208C322.427 354.056 321.841 353.011 321.073 352.072C320.305 351.133 319.281 350.387 318.001 349.832C316.721 349.256 315.291 348.968 313.713 348.968C311.643 348.968 309.841 349.459 308.305 350.44C306.79 351.421 305.681 352.637 304.977 354.088C304.273 355.539 303.921 357.085 303.921 358.728ZM326.562 362.824H327.554C327.554 362.973 327.565 363.176 327.586 363.432C327.629 363.688 327.799 364.147 328.098 364.808C328.397 365.448 328.802 366.013 329.314 366.504C329.826 366.995 330.626 367.443 331.714 367.848C332.823 368.253 334.114 368.456 335.586 368.456C336.61 368.456 337.527 368.392 338.338 368.264C339.149 368.115 339.81 367.944 340.322 367.752C340.855 367.539 341.314 367.272 341.698 366.952C342.082 366.611 342.37 366.301 342.562 366.024C342.754 365.747 342.903 365.416 343.01 365.032C343.117 364.627 343.181 364.317 343.202 364.104C343.223 363.869 343.234 363.581 343.234 363.24C343.234 363.219 343.234 363.197 343.234 363.176C343.234 362.024 342.722 361.107 341.698 360.424C340.695 359.741 339.447 359.251 337.954 358.952C336.461 358.653 334.946 358.376 333.41 358.12C331.874 357.843 330.53 357.395 329.378 356.776C328.226 356.157 327.565 355.325 327.394 354.28C327.351 353.96 327.33 353.651 327.33 353.352C327.33 351.901 328.002 350.664 329.346 349.64C330.69 348.616 332.663 348.104 335.266 348.104C336.759 348.104 338.05 348.275 339.138 348.616C340.247 348.936 341.047 349.331 341.538 349.8C342.05 350.269 342.455 350.739 342.754 351.208C343.053 351.677 343.213 352.083 343.234 352.424L343.298 352.904H342.338C342.338 352.797 342.317 352.659 342.274 352.488C342.253 352.296 342.103 351.976 341.826 351.528C341.57 351.08 341.218 350.685 340.77 350.344C340.322 350.003 339.618 349.693 338.658 349.416C337.698 349.117 336.567 348.968 335.266 348.968C332.855 348.968 331.085 349.427 329.954 350.344C328.845 351.24 328.29 352.264 328.29 353.416C328.29 353.651 328.311 353.896 328.354 354.152C328.503 354.92 329.005 355.549 329.858 356.04C330.711 356.531 331.725 356.883 332.898 357.096C334.071 357.288 335.33 357.523 336.674 357.8C338.018 358.077 339.245 358.387 340.354 358.728C341.485 359.048 342.413 359.592 343.138 360.36C343.863 361.107 344.226 362.024 344.226 363.112C344.226 363.155 344.226 363.187 344.226 363.208C344.183 365.213 343.479 366.739 342.114 367.784C340.77 368.808 338.594 369.32 335.586 369.32C334.071 369.32 332.727 369.128 331.554 368.744C330.402 368.339 329.517 367.869 328.898 367.336C328.301 366.803 327.81 366.205 327.426 365.544C327.042 364.883 326.797 364.339 326.69 363.912C326.605 363.485 326.562 363.123 326.562 362.824Z" fill="black"/>
<path fill-rule="evenodd" clip-rule="evenodd" d="M181.806 0.564616C178.495 1.38526 175.784 2.69413 175.784 3.47303C175.784 4.25353 175.214 4.53779 174.515 4.10739C173.381 3.40719 168.878 4.51049 146.074 11.0741C127.016 16.56 119.612 19.5311 120.603 21.2976C121.35 22.6322 121.053 22.6161 119.569 21.2414C117.945 19.7399 116.329 19.7977 112.237 21.5064C109.352 22.7125 106.453 23.22 105.798 22.6322C105.142 22.0444 105.202 22.5904 105.931 23.8447C106.928 25.5631 106.568 25.8618 104.465 25.054C101.441 23.8945 85.6924 28.3816 84.0222 30.8804C83.4585 31.7236 82.3376 32.0062 81.5314 31.5084C78.7643 29.7996 54.5672 37.7989 54.0148 40.6062C53.5362 43.036 64.0183 43.2448 186.908 43.2448C301.189 43.2448 320.321 42.9172 320.321 40.9611C320.321 38.3129 289.239 28.0491 285.529 29.4736C284.257 29.9602 283.591 29.7547 284.048 29.0159C284.884 27.6621 268.957 23.4288 266.327 24.3056C265.549 24.5642 264.6 24.0535 264.216 23.1702C263.173 20.7757 224.52 9.8969 219.482 10.5794C216.564 10.9761 216.004 10.7657 217.783 9.94348C219.614 9.09713 215.384 7.22296 204.132 3.8954C190.79 -0.0504603 186.735 -0.655918 181.806 0.564616ZM191.082 2.78568C190.589 3.28032 189.293 2.78727 188.203 1.68879C186.629 0.102093 186.814 -0.0809829 189.102 0.789451C190.686 1.39329 191.577 2.29105 191.082 2.78568ZM194.62 3.80706C198.218 3.02174 198.608 3.19519 196.661 4.71122C194.662 6.2674 194.866 6.45208 197.868 5.79364C199.857 5.35842 201.136 5.56559 200.708 6.25455C199.668 7.93921 218.782 13.2148 221.771 12.0682C223.068 11.5703 223.736 11.8 223.255 12.5789C222.142 14.3775 229.937 16.4107 232.314 14.9412C233.392 14.2764 233.642 14.5735 232.948 15.6944C232.245 16.8363 232.921 17.5493 234.708 17.5509C236.306 17.5509 241.415 18.9963 246.063 20.7629C255.13 24.2093 260.185 25.0187 256.082 22.3672C253.36 20.6071 254.55 20.2746 258.35 21.7329C259.742 22.266 260.529 23.273 260.099 23.97C258.994 25.7574 266.5 27.4003 269.869 26.1075C271.93 25.3174 272.322 25.5952 271.352 27.1659C270.367 28.7574 270.891 29.0721 273.42 28.4121C275.281 27.9239 277.075 28.3366 277.406 29.3259C277.735 30.3167 280.981 31.1278 284.615 31.1278C288.251 31.1278 290.484 31.5855 289.578 32.1443C287.374 33.5062 291.982 35.1828 298.37 35.3418C301.168 35.4109 302.551 35.8348 301.441 36.2813C300.331 36.7294 299.72 37.5757 300.082 38.1619C300.445 38.7497 249.209 39.2299 186.223 39.2299C123.237 39.2299 72.5379 38.6244 73.5577 37.8857C74.6739 37.0763 73.9737 36.8579 71.796 37.3348C69.8062 37.77 68.5841 37.4713 69.0803 36.6716C69.5749 35.8702 72.167 35.2149 74.8409 35.2149C82.3857 35.2149 104.023 28.502 101.574 26.9201C100.385 26.1541 101.73 26.0112 104.72 26.5845C108.282 27.2686 109.939 26.9699 109.939 25.6466C109.939 24.5786 110.843 24.0214 111.947 24.4052C115.101 25.5069 129.664 20.7179 132.084 17.7854C133.285 16.3304 133.762 16.1216 133.144 17.3197C132.333 18.8951 132.856 19.25 135.033 18.6012C136.688 18.1066 140.099 17.2104 142.613 16.6098C146.048 15.7892 146.645 15.1468 145.022 14.0194C143.526 12.982 143.96 12.8294 146.433 13.5248C149.613 14.4177 167.309 10.1201 169.36 7.95687C169.802 7.49114 170.886 7.0736 171.769 7.02703C177.414 6.73314 185.233 4.09293 184.41 2.75998C183.862 1.87509 184.923 1.96984 186.799 2.97357C188.654 3.96766 192.174 4.34184 194.62 3.80706ZM211.918 7.91352C214.036 8.82411 214.309 9.32356 212.721 9.38138C211.396 9.43116 209.228 8.7695 207.903 7.91352C204.968 6.01688 207.503 6.01688 211.918 7.91352ZM93.4444 29.7611C92.9112 30.2943 91.5253 30.3521 90.3674 29.888C89.0858 29.3756 89.4665 28.995 91.3374 28.9179C93.0301 28.8489 93.9776 29.2279 93.4444 29.7611ZM65.7752 38.4269C65.2292 39.3102 63.5606 40.0216 62.0671 40.0088C59.7272 39.9863 59.6838 39.7679 61.7603 38.4269C64.9048 36.3937 67.0311 36.3937 65.7752 38.4269ZM312.291 38.4269C315.519 39.4611 315.676 39.7213 313.094 39.7598C311.327 39.7855 308.437 39.1865 306.67 38.4269C302.578 36.6683 306.8 36.6683 312.291 38.4269ZM88.6265 41.0029C88.0933 41.536 86.7074 41.5938 85.5495 41.1297C84.2679 40.6174 84.6486 40.2368 86.5195 40.1597C88.2122 40.0906 89.1597 40.4697 88.6265 41.0029ZM98.2623 41.0029C97.7291 41.536 96.3432 41.5938 95.1853 41.1297C93.9037 40.6174 94.2844 40.2368 96.1553 40.1597C97.848 40.0906 98.7955 40.4697 98.2623 41.0029ZM225.97 41.2357C203.668 41.4878 167.173 41.4878 144.869 41.2357C122.567 40.9836 140.814 40.778 185.42 40.778C230.025 40.778 248.274 40.9836 225.97 41.2357ZM280.604 41.0864C279.516 41.5264 277.348 41.5537 275.786 41.1458C274.223 40.7379 275.113 40.3781 277.763 40.346C280.413 40.3139 281.691 40.6463 280.604 41.0864ZM291.815 41.096C290.712 41.5425 288.905 41.5425 287.8 41.096C286.697 40.6511 287.599 40.2866 289.807 40.2866C292.016 40.2866 292.92 40.6511 291.815 41.096ZM55.3365 53.6836C55.3365 55.5352 57.3985 56.0925 64.264 56.0925C69.8062 56.0925 72.8158 55.4838 72.1991 54.4865C71.6531 53.6033 71.9726 52.8806 72.9073 52.8806C73.842 52.8806 74.608 53.6033 74.608 54.4865C74.608 55.3698 75.3741 56.0925 76.3088 56.0925C77.2434 56.0925 77.4988 55.1899 76.8757 54.085C75.9699 52.4791 76.1755 52.4791 77.9051 54.085C79.4356 55.5047 85.9622 56.0058 100.223 55.7938C120.187 55.4967 120.248 55.4838 106.727 54.4865C99.2195 53.9325 136.799 53.4941 190.238 53.5117C243.676 53.5294 277.281 53.9694 264.915 54.4865C244.045 55.3602 244.911 55.4341 276.96 55.5192C295.95 55.569 308.236 55.1048 304.261 54.4865C297.142 53.38 297.185 53.3591 307.166 53.1215C313.568 52.9689 316.934 53.4716 316.306 54.4865C315.76 55.3698 316.079 56.0925 317.014 56.0925C317.949 56.0925 318.715 55.0085 318.715 53.6836C318.715 51.5621 303.012 51.2746 187.026 51.2746C71.0396 51.2746 55.3365 51.5621 55.3365 53.6836ZM89.4632 53.9437C88.3599 54.3902 86.5532 54.3902 85.4483 53.9437C84.345 53.4989 85.2476 53.1343 87.4558 53.1343C89.664 53.1343 90.5681 53.4989 89.4632 53.9437ZM123.219 55.5995C124.782 56.0074 126.95 55.9801 128.037 55.5401C129.124 55.1 127.846 54.7676 125.196 54.7997C122.546 54.8318 121.656 55.1915 123.219 55.5995ZM134.43 55.6364C136.858 56.0042 140.835 56.0042 143.263 55.6364C145.691 55.2686 143.705 54.9683 138.847 54.9683C133.989 54.9683 132.002 55.2686 134.43 55.6364ZM151.293 55.5497C152.398 55.9961 154.205 55.9961 155.308 55.5497C156.413 55.1048 155.509 54.7403 153.3 54.7403C151.092 54.7403 150.19 55.1048 151.293 55.5497ZM171.446 55.683C179.219 55.9785 191.505 55.9769 198.748 55.6798C205.992 55.3827 199.632 55.1418 184.617 55.1434C169.601 55.145 163.675 55.3891 171.446 55.683ZM222.758 55.6557C226.071 56.0026 231.492 56.0026 234.803 55.6557C238.116 55.3104 235.405 55.0261 228.781 55.0261C222.156 55.0261 219.447 55.3104 222.758 55.6557ZM70.6622 65.6175C70.1531 66.4397 70.4727 67.5655 71.3704 68.1212C72.2681 68.6753 73.0021 68.2256 73.0021 67.1223C73.0021 65.9836 74.1022 66.4638 75.5427 68.232C78.0464 71.3058 78.0689 71.3042 77.0684 68.1372C76.3473 65.8471 77.4602 66.451 80.9532 70.2443C84.0479 73.6056 85.8498 74.6687 85.8498 73.1334C85.8498 71.7988 84.6132 70.0146 83.1036 69.1683C80.8183 67.8899 81.0367 67.6747 84.4109 67.8851C87.7063 68.0891 88.3326 68.8166 87.7673 71.7748C87.3851 73.7742 86.436 75.8041 85.6587 76.2859C84.8798 76.7661 84.2438 104.578 84.2438 138.092C84.2438 191.183 84.5538 199.023 86.6528 199.023C88.747 199.023 89.0617 191.797 89.0617 143.618C89.0617 100.473 89.5066 88.1668 91.0692 88.0062C92.1741 87.8938 94.7019 87.6321 96.6901 87.4233C100.578 87.0154 101.277 88.2022 98.6767 90.8023C96.12 93.359 97.31 210.606 99.902 211.47C101.485 211.998 101.909 198.416 101.909 147.098C101.909 96.5998 101.46 81.8602 99.902 81.1825C98.7987 80.7023 99.8827 80.72 102.311 81.2226C105.128 81.8056 106.727 81.4571 106.727 80.2607C106.727 79.2296 107.45 78.833 108.333 79.379C109.356 80.0118 109.939 101.879 109.939 139.697C109.939 191.361 110.251 199.023 112.348 199.023C114.447 199.023 114.76 191.027 114.781 136.792C114.796 102.566 115.339 73.7244 115.991 72.7014C116.641 71.6784 119.882 70.3326 123.192 69.7111C126.715 69.051 129.211 67.6587 129.211 66.353C129.211 64.5319 123.913 64.1223 100.398 64.1223C84.3482 64.1223 71.1761 64.784 70.6622 65.6175ZM158.118 66.459C158.118 67.853 160.362 69.2165 163.681 69.838C169.784 70.983 171.978 72.8893 172.821 77.773C173.126 79.5396 174.098 81.5165 174.981 82.1654C175.986 82.9041 175.864 83.3538 174.652 83.3698C173.179 83.3875 172.691 97.2743 172.612 141.353C172.53 187.523 172.924 199.174 174.547 198.632C176.134 198.103 176.662 185.859 176.926 143.582C177.285 86.0245 176.963 88.3515 184.928 85.9169C188.248 84.9035 188.365 85.1476 186.936 90.1293C186.102 93.0377 185.42 121.619 185.42 153.644C185.42 204.941 185.714 211.871 187.886 211.871C190.072 211.871 190.302 204.415 189.894 146.428L189.435 80.985L193.851 80.6477L198.267 80.3121V139.667C198.267 195.174 198.449 199.015 201.078 198.897C202.623 198.828 203.166 198.466 202.282 198.094C201.001 197.554 200.814 91.4976 202.062 72.8909C202.234 70.3374 203.281 69.6838 206.813 69.9279C210.193 70.1624 211.114 69.6485 210.444 67.9012C209.951 66.6148 210.115 65.913 210.808 66.3418C211.504 66.7706 213.121 66.459 214.404 65.6464C215.872 64.7182 205.868 64.1625 187.427 64.1464C162.84 64.1255 158.118 64.4981 158.118 66.459ZM244.84 66.3032C244.84 67.572 247.693 69.0848 251.666 69.9231L258.491 71.362L259.321 135.594C259.779 170.922 260.439 195.852 260.788 190.994L261.424 182.161L262.506 190.994C263.102 195.852 263.706 175.075 263.85 144.822C264.02 109.049 263.55 89.8178 262.506 89.8178C261.623 89.8178 260.903 89.275 260.907 88.6133C260.911 87.9517 263.441 87.2788 266.527 87.1214L272.142 86.8339V149.353C272.142 204.253 272.439 211.871 274.586 211.871C276.741 211.871 276.979 204.137 276.594 146.428L276.157 80.985L280.573 80.8147L284.99 80.6429V139.834C284.99 190.979 285.312 199.023 287.363 199.023C289.409 199.023 289.796 190.178 290.174 134.703C290.453 93.4858 290.034 69.7191 289.004 68.5355C288.121 67.5173 288.608 67.5976 290.087 68.7122C293.509 71.2898 304.261 69.5007 304.261 66.353C304.261 64.5303 298.831 64.1223 274.551 64.1223C250.595 64.1223 244.84 64.5447 244.84 66.3032ZM254.476 67.3343C254.476 68.2175 253.797 68.9402 252.965 68.9402C252.133 68.9402 251.007 68.2175 250.461 67.3343C249.915 66.451 250.596 65.7283 251.973 65.7283C253.349 65.7283 254.476 66.451 254.476 67.3343ZM260.365 67.9847C260.365 69.2245 259.405 69.8717 258.233 69.422C257.06 68.9724 256.5 67.9574 256.99 67.1656C258.348 64.9671 260.365 65.4553 260.365 67.9847ZM92.7394 70.5478C93.2019 72.316 92.9241 73.3582 92.1243 72.862C91.3229 72.3674 90.6677 73.2105 90.6677 74.7346C90.6677 76.2586 90.2196 77.0568 89.672 76.5091C88.6956 75.5327 90.1634 67.3343 91.3133 67.3343C91.6361 67.3343 92.2769 68.7813 92.7394 70.5478ZM115.159 68.3974C114.055 68.8439 112.249 68.8439 111.144 68.3974C110.04 67.9526 110.943 67.588 113.151 67.588C115.359 67.588 116.264 67.9526 115.159 68.3974ZM172.572 68.9402C172.572 69.8235 171.806 70.5462 170.871 70.5462C169.937 70.5462 169.617 69.8235 170.163 68.9402C170.709 68.057 171.473 67.3343 171.864 67.3343C172.254 67.3343 172.572 68.057 172.572 68.9402ZM182.208 68.9402C182.208 69.8235 181.89 70.5462 181.5 70.5462C181.109 70.5462 180.345 69.8235 179.799 68.9402C179.253 68.057 179.572 67.3343 180.507 67.3343C181.442 67.3343 182.208 68.057 182.208 68.9402ZM176.847 75.7656C176.402 76.8705 176.038 75.9663 176.038 73.7581C176.038 71.5499 176.402 70.6474 176.847 71.7507C177.293 72.8556 177.293 74.6623 176.847 75.7656ZM112.414 75.2565C111.049 77.4663 108.333 77.4743 108.333 75.2693C108.333 74.3347 109.056 74.0151 109.939 74.5611C110.823 75.1071 111.545 74.6671 111.545 73.5847C111.545 72.5023 111.979 72.051 112.509 72.5809C113.039 73.1109 112.997 74.3154 112.414 75.2565ZM199.456 76.09C196.992 78.7655 196.266 78.2613 197.595 74.8004C198.15 73.3534 199.244 72.5665 200.026 73.0499C200.808 73.5333 200.551 74.9016 199.456 76.09ZM181.471 80.0744C180.889 81.0171 179.704 81.788 178.838 81.788C177.971 81.788 178.194 80.7762 179.335 79.5412C181.639 77.0391 183.118 77.4085 181.471 80.0744ZM90.6773 83.3939C89.1115 85.6021 87.4622 88.8542 87.0109 90.6208C86.5613 92.3873 86.2963 91.1925 86.4231 87.9661C86.55 84.7413 87.1956 82.4352 87.8573 82.8415C88.5189 83.2494 89.0617 82.8784 89.0617 82.016C89.0617 81.1552 88.1592 80.1194 87.0543 79.7163C85.951 79.3132 86.9547 79.0723 89.2866 79.1815C93.491 79.3774 93.5022 79.4111 90.6773 83.3939ZM96.5825 83.6959C96.0702 84.9758 95.6896 84.5952 95.6125 82.7242C95.5434 81.0315 95.9224 80.084 96.4556 80.6172C96.9888 81.1504 97.0466 82.5363 96.5825 83.6959ZM272.691 82.509C273.289 84.0652 272.813 84.5406 271.257 83.9432C269.977 83.4517 268.93 82.4047 268.93 81.6161C268.93 79.3067 271.716 79.9684 272.691 82.509ZM287.798 168.004C287.537 184.623 287.323 171.481 287.323 138.8C287.321 106.118 287.535 92.5206 287.797 108.584C288.059 124.645 288.06 151.384 287.798 168.004ZM183.128 84.2306C181.426 85.5186 179.64 86.1803 179.16 85.6985C178.151 84.6915 182.23 81.8249 184.617 81.8634C185.5 81.8779 184.83 82.9443 183.128 84.2306ZM265.964 85.3966C264.302 87.0587 260.9 85.7515 260.9 83.4501C260.9 82.7018 262.394 82.4785 264.218 82.9571C266.383 83.5224 266.99 84.3703 265.964 85.3966ZM112.642 86.9078C112.13 88.1877 111.749 87.8071 111.672 85.9362C111.603 84.2435 111.982 83.296 112.515 83.8291C113.048 84.3623 113.106 85.7483 112.642 86.9078ZM274.951 172.021C274.686 187.314 274.469 175.255 274.469 145.224C274.469 115.192 274.684 102.68 274.949 117.418C275.214 132.156 275.214 156.727 274.951 172.021ZM175.284 102.264C174.881 103.811 174.551 102.545 174.551 99.4536C174.551 96.3621 174.881 95.0966 175.284 96.6431C175.689 98.1897 175.689 100.717 175.284 102.264ZM99.8988 172.124C99.6306 185.593 99.4106 174.573 99.4106 147.633C99.4106 120.692 99.6306 109.672 99.8988 123.142C100.167 136.611 100.167 158.654 99.8988 172.124ZM112.745 163.291C112.465 173.67 112.236 165.178 112.236 144.421C112.236 123.664 112.465 115.171 112.745 125.551C113.024 135.928 113.024 152.911 112.745 163.291ZM262.1 163.291C261.82 173.67 261.591 165.178 261.591 144.421C261.591 123.664 261.82 115.171 262.1 125.551C262.379 135.928 262.379 152.911 262.1 163.291ZM112.698 193.782C112.329 196.223 112.017 194.607 112.005 190.191C111.993 185.774 112.295 183.776 112.676 185.752C113.056 187.727 113.066 191.341 112.698 193.782ZM175.275 196.113C174.763 197.393 174.382 197.013 174.305 195.142C174.236 193.449 174.615 192.502 175.148 193.035C175.681 193.568 175.739 194.954 175.275 196.113ZM123.882 195.253C120.82 198.315 124.528 199.023 143.615 199.023C161.958 199.023 164.325 198.72 163.465 196.48C162.679 194.432 162.225 194.353 161.131 196.078C160.114 197.682 159.768 197.716 159.748 196.213C159.716 193.574 129.926 193.356 128.302 195.983C127.502 197.278 126.902 197.271 126.091 195.959C125.477 194.968 124.485 194.65 123.882 195.253ZM209.509 196.566C209.509 198.646 212.732 199.023 230.52 199.023C246.615 199.023 251.377 198.553 250.866 197.016C250.389 195.584 244.371 194.88 229.854 194.559C212.467 194.175 209.509 194.467 209.509 196.566ZM188.089 204.243C187.644 205.348 187.279 204.444 187.279 202.235C187.279 200.027 187.644 199.125 188.089 200.228C188.535 201.333 188.535 203.14 188.089 204.243ZM68.1842 209.462C68.1842 211.356 70.4149 211.871 78.623 211.871C86.8311 211.871 89.0617 211.356 89.0617 209.462C89.0617 207.569 86.8311 207.053 78.623 207.053C70.4149 207.053 68.1842 207.569 68.1842 209.462ZM110.964 209.462C111.744 211.494 117.009 211.871 144.639 211.871C172.68 211.871 177.39 211.524 177.39 209.462C177.39 208.001 175.969 207.098 173.776 207.166C170.328 207.273 170.311 207.342 173.375 208.659C175.993 209.785 176.086 210.06 173.871 210.153C172.378 210.214 170.709 209.543 170.163 208.659C169.559 207.683 157.583 207.053 139.605 207.053C113.985 207.053 110.164 207.375 110.964 209.462ZM198.802 209.462C198.802 211.524 203.501 211.871 231.458 211.871C259.413 211.871 264.112 211.524 264.112 209.462C264.112 208.137 262.847 207.065 261.302 207.077C258.899 207.098 258.841 207.33 260.9 208.659C262.498 209.692 254.11 210.111 236.008 209.902L208.706 209.589L233.599 208.659L258.491 207.729L228.647 207.391C203.039 207.101 198.802 207.395 198.802 209.462ZM284.99 209.716C284.99 211.298 287.765 211.871 295.428 211.871C303.794 211.871 305.867 211.377 305.867 209.377C305.867 207.344 303.94 206.946 295.428 207.222C287.933 207.464 284.99 208.168 284.99 209.716ZM87.0206 209.629C86.4874 210.162 85.1014 210.22 83.9435 209.756C82.662 209.244 83.0426 208.863 84.9135 208.786C86.6062 208.717 87.5537 209.096 87.0206 209.629ZM207.468 209.629C206.935 210.162 205.549 210.22 204.391 209.756C203.109 209.244 203.49 208.863 205.361 208.786C207.054 208.717 208.001 209.096 207.468 209.629ZM55.3365 222.254C55.3365 224.451 69.6986 224.719 187.026 224.719C303.012 224.719 318.715 224.431 318.715 222.31C318.715 220.985 317.949 219.901 317.014 219.901C316.079 219.901 315.686 220.503 316.141 221.239C316.595 221.976 315.948 222.578 314.7 222.578C313.452 222.578 312.782 222.011 313.211 221.317C313.638 220.625 256.871 220.083 187.058 220.111C101.347 220.147 60.4547 220.694 61.1372 221.798C61.7346 222.766 60.7566 222.689 58.7427 221.611C55.9596 220.121 55.3365 220.238 55.3365 222.254ZM249.223 222.477C248.69 223.01 247.304 223.068 246.146 222.604C244.864 222.092 245.245 221.711 247.116 221.634C248.809 221.565 249.756 221.944 249.223 222.477ZM260.518 222.61C258.983 223.012 256.092 223.026 254.094 222.642C252.096 222.259 253.352 221.929 256.885 221.912C260.418 221.894 262.053 222.209 260.518 222.61ZM271.74 222.614C270.195 223.018 267.664 223.018 266.119 222.614C264.575 222.21 265.838 221.88 268.93 221.88C272.021 221.88 273.285 222.21 271.74 222.614Z" fill="black"/>
</svg>
